<svg id="Capa_1" data-name="Capa 1" xmlns="http://www.w3.org/2000/svg" xmlns:xlink="http://www.w3.org/1999/xlink" viewBox="0 0 56 55.1"><defs><style>.cls-1{fill:url(#Degradado_sin_nombre);}.cls-2{fill:#fff;}</style><radialGradient id="Degradado_sin_nombre" cx="-305.56" cy="1395.25" r="114.07" gradientTransform="matrix(0.64, -0.29, 0.23, 0.52, -120.24, -751.28)" gradientUnits="userSpaceOnUse"><stop offset="0" stop-color="#f9ed32"/><stop offset="0.26" stop-color="#f59f4f"/><stop offset="0.65" stop-color="#ee2a7b"/><stop offset="0.68" stop-color="#e32a81"/><stop offset="0.74" stop-color="#c72a91"/><stop offset="0.81" stop-color="#982aab"/><stop offset="0.9" stop-color="#582ace"/><stop offset="0.99" stop-color="#072afb"/><stop offset="1" stop-color="#002aff"/></radialGradient></defs><title>instagram_icon</title><g id="ig"><path class="cls-1" d="M47,57.43H16.24A10.33,10.33,0,0,1,5.94,47.12V16.36a10.32,10.32,0,0,1,10.3-10.3H47a10.32,10.32,0,0,1,10.3,10.3V47.12A10.33,10.33,0,0,1,47,57.43Z" transform="translate(-4 -4.27)"/><path class="cls-2" d="M42.83,59.37H21.32A17.18,17.18,0,0,1,4,42.35V21.29a17.18,17.18,0,0,1,17.32-17H42.68A17.18,17.18,0,0,1,60,21.29V42.35A17,17,0,0,1,42.83,59.37ZM21.32,6.81A14.43,14.43,0,0,0,6.69,21.29V42.35A14.53,14.53,0,0,0,21.32,56.83H42.68A14.43,14.43,0,0,0,57.31,42.35V21.29A14.53,14.53,0,0,0,42.68,6.81Z" transform="translate(-4 -4.27)"/><path class="cls-2" d="M31.63,45.18A13.44,13.44,0,1,1,45.07,31.74,13.38,13.38,0,0,1,31.63,45.18Zm0-24.49a11.05,11.05,0,1,0,11.05,11A11,11,0,0,0,31.63,20.69Z" transform="translate(-4 -4.27)"/><path class="cls-2" d="M46.26,20.69A3.73,3.73,0,1,1,50,17,3.69,3.69,0,0,1,46.26,20.69Zm0-4.78a1.1,1.1,0,0,0-1.19,1.2,1.19,1.19,0,0,0,2.38,0A1.1,1.1,0,0,0,46.26,15.91Z" transform="translate(-4 -4.27)"/></g></svg>