<svg id="Capa_1" data-name="Capa 1" xmlns="http://www.w3.org/2000/svg" xmlns:xlink="http://www.w3.org/1999/xlink" viewBox="0 0 37.5 36.9"><defs><style>.cls-1{fill:url(#Degradado_sin_nombre);}.cls-2{fill:#fff;}</style><radialGradient id="Degradado_sin_nombre" cx="-291.67" cy="1388.35" r="76.39" gradientTransform="matrix(0.64, -0.29, 0.23, 0.52, -120.24, -751.28)" gradientUnits="userSpaceOnUse"><stop offset="0" stop-color="#f9ed32"/><stop offset="0.26" stop-color="#f59f4f"/><stop offset="0.65" stop-color="#ee2a7b"/><stop offset="0.68" stop-color="#e32a81"/><stop offset="0.74" stop-color="#c72a91"/><stop offset="0.81" stop-color="#982aab"/><stop offset="0.9" stop-color="#582ace"/><stop offset="0.99" stop-color="#072afb"/><stop offset="1" stop-color="#002aff"/></radialGradient></defs><title>instagram_icon</title><g id="ig"><path class="cls-1" d="M42,50H21.4a6.91,6.91,0,0,1-6.9-6.9V22.5a6.91,6.91,0,0,1,6.9-6.9H42a6.91,6.91,0,0,1,6.9,6.9V43.1A6.91,6.91,0,0,1,42,50Z" transform="translate(-13.2 -14.4)"/><path class="cls-2" d="M39.2,51.3H24.8A11.5,11.5,0,0,1,13.2,39.9V25.8A11.5,11.5,0,0,1,24.8,14.4H39.1A11.5,11.5,0,0,1,50.7,25.8V39.9A11.35,11.35,0,0,1,39.2,51.3ZM24.8,16.1A9.67,9.67,0,0,0,15,25.8V39.9a9.73,9.73,0,0,0,9.8,9.7H39.1a9.67,9.67,0,0,0,9.8-9.7V25.8a9.73,9.73,0,0,0-9.8-9.7Z" transform="translate(-13.2 -14.4)"/><path class="cls-2" d="M31.7,41.8a9,9,0,1,1,9-9A9,9,0,0,1,31.7,41.8Zm0-16.4a7.4,7.4,0,1,0,7.4,7.4A7.38,7.38,0,0,0,31.7,25.4Z" transform="translate(-13.2 -14.4)"/><path class="cls-2" d="M41.5,25.4A2.5,2.5,0,1,1,44,22.9,2.48,2.48,0,0,1,41.5,25.4Zm0-3.2a.8.8,0,1,0,.8.8A.74.74,0,0,0,41.5,22.2Z" transform="translate(-13.2 -14.4)"/></g></svg>